<svg width="135" height="75" viewBox="0 0 135 75" fill="none" xmlns="http://www.w3.org/2000/svg">
<path d="M13.338 30.058C11.4886 30.058 9.80397 29.754 8.28397 29.146C6.76397 28.538 5.45931 27.6513 4.36997 26.486C3.28064 25.3207 2.43197 23.8893 1.82397 22.192C1.24131 20.4693 0.949972 18.506 0.949972 16.302C0.949972 14.098 1.27931 12.1473 1.93797 10.45C2.62197 8.72734 3.53397 7.28334 4.67397 6.11801C5.81397 4.95267 7.14397 4.06601 8.66397 3.458C10.184 2.85 11.8053 2.546 13.528 2.546C14.6173 2.546 15.5926 2.62201 16.454 2.77401C17.3406 2.92601 18.1006 3.10334 18.734 3.30601C19.3926 3.50867 19.9246 3.71134 20.33 3.91401C20.7353 4.11667 21.014 4.26867 21.166 4.37001L20.102 7.41001C19.874 7.25801 19.5446 7.09334 19.114 6.91601C18.6833 6.73867 18.1893 6.56134 17.632 6.38401C17.1 6.20667 16.5046 6.06734 15.846 5.96601C15.2126 5.83934 14.5666 5.77601 13.908 5.77601C12.5146 5.77601 11.2606 6.01667 10.146 6.49801C9.03131 6.97934 8.08131 7.67601 7.29597 8.58801C6.51064 9.50001 5.90264 10.6147 5.47197 11.932C5.06664 13.224 4.86397 14.6807 4.86397 16.302C4.86397 17.8727 5.04131 19.304 5.39597 20.596C5.77597 21.888 6.33331 23.0027 7.06797 23.94C7.80264 24.852 8.71464 25.5613 9.80397 26.068C10.9186 26.5747 12.2106 26.828 13.68 26.828C15.3773 26.828 16.7833 26.6507 17.898 26.296C19.0126 25.9413 19.8486 25.6247 20.406 25.346L21.356 28.386C21.1786 28.5127 20.862 28.6773 20.406 28.88C19.95 29.0573 19.38 29.2347 18.696 29.412C18.012 29.5893 17.214 29.7413 16.302 29.868C15.39 29.9947 14.402 30.058 13.338 30.058ZM30.6704 29.488V0.608005L34.2044 5.72205e-06V10.108C34.8631 9.85467 35.5598 9.66467 36.2944 9.53801C37.0544 9.38601 37.8018 9.31001 38.5364 9.31001C40.1071 9.31001 41.4118 9.53801 42.4504 9.99401C43.4891 10.4247 44.3124 11.0453 44.9204 11.856C45.5538 12.6413 45.9971 13.5913 46.2504 14.706C46.5038 15.8207 46.6304 17.0493 46.6304 18.392V29.488H43.0964V19.152C43.0964 17.936 43.0078 16.8973 42.8304 16.036C42.6784 15.1747 42.4124 14.478 42.0324 13.946C41.6524 13.414 41.1458 13.034 40.5124 12.806C39.8791 12.5527 39.0938 12.426 38.1564 12.426C37.7764 12.426 37.3838 12.4513 36.9784 12.502C36.5731 12.5527 36.1804 12.616 35.8004 12.692C35.4458 12.7427 35.1164 12.806 34.8124 12.882C34.5338 12.958 34.3311 13.0213 34.2044 13.072V29.488H30.6704ZM64.3874 26.942C65.2234 26.942 65.9581 26.9293 66.5914 26.904C67.2501 26.8533 67.7947 26.7773 68.2254 26.676V20.786C67.9721 20.6593 67.5541 20.558 66.9714 20.482C66.4141 20.3807 65.7301 20.33 64.9194 20.33C64.3874 20.33 63.8174 20.368 63.2094 20.444C62.6267 20.52 62.0821 20.6847 61.5754 20.938C61.0941 21.166 60.6887 21.4953 60.3594 21.926C60.0301 22.3313 59.8654 22.876 59.8654 23.56C59.8654 24.8267 60.2707 25.7133 61.0814 26.22C61.8921 26.7013 62.9941 26.942 64.3874 26.942ZM64.0834 9.234C65.5021 9.234 66.6927 9.42401 67.6554 9.80401C68.6434 10.1587 69.4287 10.678 70.0114 11.362C70.6194 12.0207 71.0501 12.8187 71.3034 13.756C71.5567 14.668 71.6834 15.6813 71.6834 16.796V29.146C71.3794 29.1967 70.9487 29.2727 70.3914 29.374C69.8594 29.45 69.2514 29.526 68.5674 29.602C67.8834 29.678 67.1361 29.7413 66.3254 29.792C65.5401 29.868 64.7547 29.906 63.9694 29.906C62.8547 29.906 61.8287 29.792 60.8914 29.564C59.9541 29.336 59.1434 28.9813 58.4594 28.5C57.7754 27.9933 57.2434 27.3347 56.8634 26.524C56.4834 25.7133 56.2934 24.738 56.2934 23.598C56.2934 22.5087 56.5087 21.5713 56.9394 20.786C57.3954 20.0007 58.0034 19.3673 58.7634 18.886C59.5234 18.4047 60.4101 18.05 61.4234 17.822C62.4367 17.594 63.5007 17.48 64.6154 17.48C64.9701 17.48 65.3374 17.5053 65.7174 17.556C66.0974 17.5813 66.4521 17.632 66.7814 17.708C67.1361 17.7587 67.4401 17.8093 67.6934 17.86C67.9467 17.9107 68.1241 17.9487 68.2254 17.974V16.986C68.2254 16.4033 68.1621 15.8333 68.0354 15.276C67.9087 14.6933 67.6807 14.1867 67.3514 13.756C67.0221 13.3 66.5661 12.9453 65.9834 12.692C65.4261 12.4133 64.6914 12.274 63.7794 12.274C62.6141 12.274 61.5881 12.3627 60.7014 12.54C59.8401 12.692 59.1941 12.8567 58.7634 13.034L58.3454 10.108C58.8014 9.90534 59.5614 9.71534 60.6254 9.53801C61.6894 9.33534 62.8421 9.234 64.0834 9.234ZM79.9983 33.174C80.2769 33.3007 80.6316 33.4147 81.0623 33.516C81.5183 33.6427 81.9616 33.706 82.3923 33.706C83.7856 33.706 84.875 33.3893 85.6603 32.756C86.4456 32.148 87.155 31.1473 87.7883 29.754C86.1923 26.714 84.6976 23.4967 83.3043 20.102C81.9363 16.682 80.7963 13.224 79.8843 9.72801H83.6843C83.963 10.868 84.2923 12.0967 84.6723 13.414C85.0776 14.7313 85.521 16.0867 86.0023 17.48C86.4836 18.8733 87.003 20.2667 87.5603 21.66C88.1176 23.0533 88.7003 24.396 89.3083 25.688C90.271 23.028 91.107 20.3933 91.8163 17.784C92.5256 15.1747 93.197 12.4893 93.8303 9.72801H97.4783C96.5663 13.452 95.553 17.0367 94.4383 20.482C93.3236 23.902 92.1203 27.1067 90.8283 30.096C90.3216 31.236 89.7896 32.2113 89.2323 33.022C88.7003 33.858 88.105 34.542 87.4463 35.074C86.7876 35.606 86.0403 35.9987 85.2043 36.252C84.3936 36.5053 83.469 36.632 82.4303 36.632C82.1516 36.632 81.8603 36.6067 81.5563 36.556C81.2523 36.5307 80.9483 36.48 80.6443 36.404C80.3656 36.3533 80.0996 36.29 79.8463 36.214C79.6183 36.138 79.4536 36.0747 79.3523 36.024L79.9983 33.174ZM8.13197 70.866C11.9826 70.866 13.908 69.5487 13.908 66.914C13.908 66.1033 13.7306 65.4193 13.376 64.862C13.0466 64.2793 12.5906 63.7853 12.008 63.38C11.4253 62.9493 10.754 62.582 9.99397 62.278C9.25931 61.974 8.47397 61.67 7.63797 61.366C6.67531 61.0367 5.76331 60.6693 4.90197 60.264C4.04064 59.8333 3.29331 59.3393 2.65997 58.782C2.02664 58.1993 1.51997 57.5153 1.13997 56.73C0.785305 55.9447 0.607972 54.9947 0.607972 53.88C0.607972 51.5747 1.39331 49.776 2.96397 48.484C4.53464 47.192 6.70064 46.546 9.46197 46.546C11.058 46.546 12.502 46.7233 13.794 47.078C15.1113 47.4073 16.074 47.7747 16.682 48.18L15.504 51.182C14.972 50.8527 14.174 50.536 13.11 50.232C12.0713 49.9027 10.8553 49.738 9.46197 49.738C8.75264 49.738 8.09397 49.814 7.48597 49.966C6.87797 50.118 6.34597 50.346 5.88997 50.65C5.43397 50.954 5.06664 51.3467 4.78797 51.828C4.53464 52.284 4.40797 52.8287 4.40797 53.462C4.40797 54.1713 4.54731 54.7667 4.82597 55.248C5.10464 55.7293 5.49731 56.16 6.00397 56.54C6.51064 56.8947 7.09331 57.224 7.75197 57.528C8.43597 57.832 9.18331 58.136 9.99397 58.44C11.134 58.896 12.1726 59.352 13.11 59.808C14.0726 60.264 14.896 60.8087 15.58 61.442C16.2893 62.0753 16.834 62.8353 17.214 63.722C17.594 64.5833 17.784 65.6347 17.784 66.876C17.784 69.1813 16.9353 70.9547 15.238 72.196C13.566 73.4373 11.1973 74.058 8.13197 74.058C7.09331 74.058 6.13064 73.982 5.24397 73.83C4.38264 73.7033 3.60997 73.5513 2.92597 73.374C2.24197 73.1713 1.64664 72.9687 1.13997 72.766C0.658638 72.538 0.278638 72.348 -2.83271e-05 72.196L1.10197 69.156C1.68464 69.4853 2.57131 69.8527 3.76197 70.258C4.95264 70.6633 6.40931 70.866 8.13197 70.866ZM44.7726 63.608C44.7726 65.1787 44.5446 66.5973 44.0886 67.864C43.6326 69.1307 42.9866 70.22 42.1506 71.132C41.3399 72.044 40.3646 72.7533 39.2246 73.26C38.0846 73.7413 36.8432 73.982 35.5006 73.982C34.1579 73.982 32.9166 73.7413 31.7766 73.26C30.6366 72.7533 29.6486 72.044 28.8126 71.132C28.0019 70.22 27.3686 69.1307 26.9126 67.864C26.4566 66.5973 26.2286 65.1787 26.2286 63.608C26.2286 62.0627 26.4566 60.6567 26.9126 59.39C27.3686 58.098 28.0019 56.996 28.8126 56.084C29.6486 55.172 30.6366 54.4753 31.7766 53.994C32.9166 53.4873 34.1579 53.234 35.5006 53.234C36.8432 53.234 38.0846 53.4873 39.2246 53.994C40.3646 54.4753 41.3399 55.172 42.1506 56.084C42.9866 56.996 43.6326 58.098 44.0886 59.39C44.5446 60.6567 44.7726 62.0627 44.7726 63.608ZM41.0866 63.608C41.0866 61.3787 40.5799 59.618 39.5666 58.326C38.5786 57.0087 37.2232 56.35 35.5006 56.35C33.7779 56.35 32.4099 57.0087 31.3966 58.326C30.4086 59.618 29.9146 61.3787 29.9146 63.608C29.9146 65.8373 30.4086 67.6107 31.3966 68.928C32.4099 70.22 33.7779 70.866 35.5006 70.866C37.2232 70.866 38.5786 70.22 39.5666 68.928C40.5799 67.6107 41.0866 65.8373 41.0866 63.608ZM70.7966 72.918C69.986 73.1207 68.9093 73.336 67.5666 73.564C66.2493 73.792 64.7166 73.906 62.9686 73.906C61.4486 73.906 60.1693 73.6907 59.1306 73.26C58.092 72.804 57.256 72.1707 56.6226 71.36C55.9893 70.5493 55.5333 69.5993 55.2546 68.51C54.976 67.3953 54.8366 66.1667 54.8366 64.824V53.728H58.3706V64.064C58.3706 66.4707 58.7506 68.1933 59.5106 69.232C60.2706 70.2707 61.55 70.79 63.3486 70.79C63.7286 70.79 64.1213 70.7773 64.5266 70.752C64.932 70.7267 65.312 70.7013 65.6666 70.676C66.0213 70.6253 66.338 70.5873 66.6166 70.562C66.9206 70.5113 67.136 70.4607 67.2626 70.41V53.728H70.7966V72.918ZM95.315 56.388C94.783 56.9707 94.0736 57.794 93.187 58.858C92.3256 59.922 91.3883 61.1 90.375 62.392C89.387 63.684 88.3863 65.0393 87.373 66.458C86.385 67.8767 85.511 69.232 84.751 70.524H95.619V73.488H80.533V71.132C81.141 70.0173 81.8883 68.7887 82.775 67.446C83.6616 66.1033 84.5863 64.7733 85.549 63.456C86.537 62.1133 87.487 60.8593 88.399 59.694C89.3363 58.5033 90.147 57.5027 90.831 56.692H81.065V53.728H95.315V56.388ZM112.1 70.942C112.936 70.942 113.67 70.9293 114.304 70.904C114.962 70.8533 115.507 70.7773 115.938 70.676V64.786C115.684 64.6593 115.266 64.558 114.684 64.482C114.126 64.3807 113.442 64.33 112.632 64.33C112.1 64.33 111.53 64.368 110.922 64.444C110.339 64.52 109.794 64.6847 109.288 64.938C108.806 65.166 108.401 65.4953 108.072 65.926C107.742 66.3313 107.578 66.876 107.578 67.56C107.578 68.8267 107.983 69.7133 108.794 70.22C109.604 70.7013 110.706 70.942 112.1 70.942ZM111.796 53.234C113.214 53.234 114.405 53.424 115.368 53.804C116.356 54.1587 117.141 54.678 117.724 55.362C118.332 56.0207 118.762 56.8187 119.016 57.756C119.269 58.668 119.396 59.6813 119.396 60.796V73.146C119.092 73.1967 118.661 73.2727 118.104 73.374C117.572 73.45 116.964 73.526 116.28 73.602C115.596 73.678 114.848 73.7413 114.038 73.792C113.252 73.868 112.467 73.906 111.682 73.906C110.567 73.906 109.541 73.792 108.604 73.564C107.666 73.336 106.856 72.9813 106.172 72.5C105.488 71.9933 104.956 71.3347 104.576 70.524C104.196 69.7133 104.006 68.738 104.006 67.598C104.006 66.5087 104.221 65.5713 104.652 64.786C105.108 64.0007 105.716 63.3673 106.476 62.886C107.236 62.4047 108.122 62.05 109.136 61.822C110.149 61.594 111.213 61.48 112.328 61.48C112.682 61.48 113.05 61.5053 113.43 61.556C113.81 61.5813 114.164 61.632 114.494 61.708C114.848 61.7587 115.152 61.8093 115.406 61.86C115.659 61.9107 115.836 61.9487 115.938 61.974V60.986C115.938 60.4033 115.874 59.8333 115.748 59.276C115.621 58.6933 115.393 58.1867 115.064 57.756C114.734 57.3 114.278 56.9453 113.696 56.692C113.138 56.4133 112.404 56.274 111.492 56.274C110.326 56.274 109.3 56.3627 108.414 56.54C107.552 56.692 106.906 56.8567 106.476 57.034L106.058 54.108C106.514 53.9053 107.274 53.7153 108.338 53.538C109.402 53.3353 110.554 53.234 111.796 53.234ZM134.765 71.436C134.765 72.12 134.537 72.7153 134.081 73.222C133.625 73.7287 133.005 73.982 132.219 73.982C131.434 73.982 130.813 73.7287 130.357 73.222C129.901 72.7153 129.673 72.12 129.673 71.436C129.673 70.752 129.901 70.1567 130.357 69.65C130.813 69.1433 131.434 68.89 132.219 68.89C133.005 68.89 133.625 69.1433 134.081 69.65C134.537 70.1567 134.765 70.752 134.765 71.436Z" fill="black"/>
</svg>
